 <svg  version="1.0" xmlns="http://www.w3.org/2000/svg"  width="210.000000pt" height="281.000000pt" viewBox="0 0 210.000000 281.000000"  preserveAspectRatio="xMidYMid meet">  <g transform="translate(0.000000,281.000000) scale(0.100000,-0.100000)" fill="#540d6e" stroke="none"> <path d="M973 2496 c-23 -29 -48 -33 -76 -11 -11 7 -26 11 -35 8 -26 -9 -82 -65 -82 -82 0 -12 -3 -12 -12 -3 -16 16 -28 15 -28 -3 0 -8 5 -15 10 -15 6 0 10 -9 10 -21 0 -31 24 -17 28 17 5 36 33 64 66 64 14 0 28 5 31 10 5 8 11 8 20 0 7 -6 25 -8 39 -4 22 5 26 3 26 -16 0 -11 4 -19 9 -16 4 3 7 17 6 31 -3 27 6 31 36 15 13 -8 19 -7 19 0 0 7 18 9 51 6 43 -4 50 -2 47 12 -3 13 -16 17 -61 18 -31 1 -60 -3 -64 -9 -4 -6 -9 -3 -13 8 -6 16 -8 15 -27 -9z"/> <path d="M1223 2486 c6 -15 3 -17 -13 -13 -12 3 -20 0 -20 -7 0 -19 9 -24 30 -19 26 7 31 25 12 43 -14 13 -15 12 -9 -4z"/> <path d="M1147 2433 c-10 -20 -16 -37 -14 -40 7 -7 38 48 35 62 -2 7 -11 -3 -21 -22z"/> <path d="M1094 2435 c-16 -12 -16 -14 -3 -15 9 0 22 7 29 15 16 19 0 19 -26 0z"/> <path d="M1312 2435 c-11 -12 -10 -15 2 -15 8 0 16 3 19 8 2 4 2 1 0 -7 -4 -16 44 -71 63 -71 6 0 15 7 18 16 6 15 9 15 29 -3 34 -31 47 -36 47 -19 0 9 -4 16 -10 16 -5 0 -22 12 -37 28 -24 23 -28 25 -31 10 -5 -28 -42 -23 -42 5 0 41 -33 60 -58 32z"/> <path d="M1222 2428 c-18 -18 -14 -30 8 -23 12 4 20 2 20 -5 0 -7 -9 -14 -20 -17 -22 -6 -18 -23 6 -23 8 0 14 7 14 15 0 9 10 20 23 25 l22 9 -22 0 c-12 1 -26 8 -30 16 -7 12 -12 12 -21 3z"/> <path d="M906 2399 c-14 -11 -24 -24 -21 -29 6 -9 74 30 75 43 0 14 -27 7 -54 -14z"/> <path d="M825 2381 c-8 -27 -2 -36 13 -18 6 7 7 18 3 26 -7 10 -10 8 -16 -8z"/> <path d="M961 2381 l-25 -19 27 5 c15 3 27 12 27 19 0 17 0 17 -29 -5z"/> <path d="M1155 2380 c-3 -5 1 -10 9 -10 8 0 18 5 21 10 3 6 -1 10 -9 10 -8 0 -18 -4 -21 -10z"/> <path d="M1306 2377 c3 -9 1 -25 -6 -36 -9 -17 -8 -21 4 -21 10 0 13 -6 9 -17 -4 -11 -3 -14 5 -9 15 9 10 88 -6 94 -7 2 -10 -2 -6 -11z"/> <path d="M716 2371 c-3 -5 1 -11 9 -15 9 -3 15 0 15 9 0 16 -16 20 -24 6z"/> <path d="M1013 2335 c-1 -19 0 -35 2 -35 11 0 24 40 19 54 -10 26 -19 18 -21 -19z"/> <path d="M1176 2342 c-2 -4 4 -13 15 -20 21 -13 22 -12 13 12 -7 17 -20 21 -28 8z"/> <path d="M701 2331 c-29 -5 -32 -8 -19 -19 13 -10 20 -9 39 8 13 10 22 19 19 18 -3 0 -20 -3 -39 -7z"/> <path d="M790 2319 c0 -11 -4 -17 -10 -14 -5 3 -15 -3 -22 -15 -7 -11 -21 -20 -30 -20 -10 0 -18 -4 -18 -9 0 -5 6 -8 13 -7 28 6 47 19 47 32 0 8 6 11 15 8 11 -5 15 1 15 20 0 14 -2 26 -5 26 -3 0 -5 -9 -5 -21z"/> <path d="M840 2325 c-8 -9 -8 -15 -2 -15 18 0 42 12 42 21 0 14 -26 10 -40 -6z"/> <path d="M1051 2299 c-12 -20 -11 -21 4 -15 15 5 16 4 5 -9 -11 -13 -10 -18 5 -29 10 -7 15 -17 12 -22 -3 -6 3 -10 13 -11 30 -3 35 18 10 37 -22 16 -22 18 -5 43 17 27 17 27 -6 27 -14 0 -30 -9 -38 -21z"/> <path d="M613 2279 c-2 -22 1 -27 14 -22 12 5 13 8 5 11 -9 3 -10 8 -2 17 8 9 7 14 -2 18 -8 3 -14 -6 -15 -24z"/> <path d="M1470 2290 c0 -5 7 -10 16 -10 13 0 14 -3 4 -15 -14 -17 -4 -58 13 -52 12 4 12 17 2 65 -5 21 -35 32 -35 12z"/> <path d="M1582 2280 c12 -19 28 -27 28 -14 0 7 -27 34 -34 34 -4 0 -1 -9 6 -20z"/> <path d="M580 2282 c0 -5 -10 -14 -22 -21 -16 -8 -17 -10 -4 -6 11 3 23 0 28 -7 5 -9 8 -4 8 15 0 15 -2 27 -5 27 -3 0 -5 -4 -5 -8z"/> <path d="M667 2283 c-2 -5 -1 -19 3 -33 6 -24 7 -24 11 8 5 29 -4 44 -14 25z"/> <path d="M897 2264 c3 -7 -2 -21 -11 -29 -26 -27 -18 -34 18 -17 19 9 32 20 29 25 -3 4 4 11 16 14 33 9 24 18 -18 19 -29 1 -38 -2 -34 -12z"/> <path d="M831 2249 c-12 -12 -20 -23 -18 -26 7 -6 46 19 51 34 8 19 -7 16 -33 -8z"/> <path d="M986 2263 c-3 -3 -6 -17 -6 -30 0 -30 22 -26 26 5 4 21 -8 37 -20 25z"/> <path d="M1530 2255 c0 -8 4 -15 9 -15 5 0 18 -3 28 -7 17 -6 17 -5 -1 15 -22 26 -36 28 -36 7z"/> <path d="M1435 2240 c-3 -11 -13 -20 -21 -20 -11 0 -13 -7 -8 -27 10 -41 28 -55 19 -15 -5 23 -3 34 7 37 8 3 14 14 15 25 2 26 -4 26 -12 0z"/> <path d="M1215 2239 c-4 -5 -15 -9 -26 -9 -11 0 -17 -5 -14 -10 4 -6 11 -8 16 -5 5 4 9 0 9 -7 1 -8 6 -6 15 6 12 16 17 17 30 6 16 -13 21 -40 6 -40 -4 0 -24 -13 -42 -30 -19 -16 -38 -30 -43 -30 -4 0 -5 -7 -2 -16 4 -9 1 -23 -5 -30 -9 -11 -8 -14 1 -14 6 0 10 -6 8 -12 -3 -7 1 -18 8 -25 17 -17 25 -16 18 2 -4 8 -2 15 4 15 15 0 72 -34 72 -42 0 -5 9 -8 20 -8 34 0 22 26 -18 38 -80 24 -101 86 -41 118 16 8 29 19 29 24 0 5 6 15 13 22 11 11 8 17 -20 35 -18 12 -35 18 -38 12z"/> <path d="M590 2220 c0 -5 6 -10 14 -10 8 0 17 -6 19 -12 3 -7 6 -3 6 10 1 16 -5 22 -19 22 -11 0 -20 -4 -20 -10z"/> <path d="M710 2216 c0 -9 0 -19 -1 -23 0 -4 4 -9 10 -11 14 -5 14 35 1 43 -5 3 -10 -1 -10 -9z"/> <path d="M766 2198 c-9 -34 -8 -38 9 -38 12 0 14 7 9 28 -9 36 -10 37 -18 10z"/> <path d="M1320 2213 c-22 -9 -43 -33 -36 -40 4 -4 19 5 34 20 27 28 28 30 2 20z"/> <path d="M933 2193 c2 -13 14 -34 28 -49 22 -23 23 -26 6 -35 -9 -6 -17 -14 -17 -19 0 -16 26 -11 43 8 14 16 14 20 0 51 -9 18 -24 36 -32 39 -9 3 -19 10 -24 16 -4 6 -6 1 -4 -11z"/> <path d="M1597 2204 c-3 -3 -3 -13 1 -22 5 -14 2 -13 -14 2 -17 17 -19 18 -22 3 -2 -9 -12 -19 -22 -22 -12 -4 -17 -12 -13 -21 5 -12 8 -12 18 4 10 13 23 17 49 14 31 -4 36 -8 36 -31 0 -21 5 -26 25 -27 14 -1 25 2 25 7 0 5 -9 9 -20 9 -15 0 -20 7 -20 26 0 22 2 25 15 14 11 -9 15 -9 15 -1 0 6 -11 16 -25 21 -14 5 -25 14 -25 20 0 11 -13 13 -23 4z"/> <path d="M500 2185 c-16 -20 -18 -107 -2 -112 7 -3 10 1 6 10 -8 21 14 31 33 15 14 -11 15 -10 8 12 -8 23 -12 48 -14 78 -1 16 -16 15 -31 -3z"/> <path d="M1096 2175 c-6 -18 32 -41 45 -28 14 14 0 43 -21 43 -10 0 -20 -7 -24 -15z"/> <path d="M640 2171 c-8 -6 -17 -8 -21 -5 -11 6 -21 -14 -14 -26 7 -11 42 8 49 27 6 15 5 16 -14 4z"/> <path d="M852 2172 c-19 -12 -20 -64 -2 -70 12 -4 13 -3 3 10 -11 12 -9 18 7 33 20 18 21 18 14 0 -6 -16 -5 -16 14 3 12 12 22 24 22 27 0 8 -44 5 -58 -3z"/> <path d="M712 2125 c5 -49 18 -74 18 -32 0 20 4 25 17 20 11 -4 14 -3 9 5 -4 7 -14 12 -22 12 -11 0 -13 6 -9 20 4 12 2 20 -5 20 -7 0 -10 -16 -8 -45z"/> <path d="M1027 2153 c-13 -12 -7 -41 9 -47 13 -5 14 -9 4 -21 -19 -23 3 -18 30 8 l25 22 -33 3 c-27 3 -32 7 -27 23 7 20 3 24 -8 12z"/> <path d="M1379 2158 c-6 -13 -5 -48 1 -48 12 0 19 39 9 46 -5 3 -10 4 -10 2z"/> <path d="M1280 2115 c0 -39 3 -40 48 -24 35 12 35 31 0 21 -14 -3 -19 -1 -14 6 3 6 -3 16 -14 22 -18 10 -20 8 -20 -25z"/> <path d="M1453 2133 c-3 -10 -12 -26 -20 -35 -12 -13 -12 -16 -1 -14 7 1 19 5 26 9 8 5 12 2 12 -8 0 -15 1 -15 16 0 15 14 15 18 0 40 -19 30 -25 31 -33 8z"/> <path d="M804 2074 c3 -9 9 -26 12 -39 3 -14 16 -26 30 -29 14 -4 34 -22 46 -41 11 -19 25 -35 30 -35 6 0 8 -13 4 -32 -4 -18 -6 -46 -6 -62 0 -22 -3 -27 -16 -22 -10 4 -14 2 -12 -6 3 -7 -1 -19 -9 -26 -7 -7 -13 -19 -12 -25 0 -9 2 -8 6 1 2 6 14 12 25 12 14 0 18 5 14 16 -3 8 -2 12 3 9 12 -7 18 15 26 97 7 63 6 67 -16 79 -13 6 -34 22 -45 35 -20 21 -21 24 -5 37 9 8 24 17 34 20 21 8 23 27 2 27 -9 0 -29 -7 -46 -15 -26 -14 -30 -14 -35 0 -3 8 -13 15 -21 15 -10 0 -13 -6 -9 -16z"/> <path d="M1360 2065 c-10 -13 -9 -15 8 -15 15 0 20 5 16 15 -4 8 -7 15 -9 15 -1 0 -8 -7 -15 -15z"/> <path d="M1562 2071 c2 -7 7 -12 11 -12 12 1 9 15 -3 20 -7 2 -11 -2 -8 -8z"/> <path d="M1633 2061 c-9 -14 -9 -21 0 -30 9 -9 9 -14 1 -19 -15 -10 -27 -49 -19 -63 11 -18 40 48 48 110 3 22 -17 23 -30 2z"/> <path d="M474 2044 c4 -9 2 -13 -5 -8 -7 4 -10 -1 -7 -11 6 -33 28 -29 28 4 0 17 -5 31 -11 31 -6 0 -8 -7 -5 -16z"/> <path d="M1473 2035 c-9 -20 -8 -25 2 -25 18 0 24 11 16 32 -5 15 -8 13 -18 -7z"/> <path d="M1415 2029 c-3 -13 -2 -45 3 -71 5 -26 6 -50 2 -55 -4 -4 -5 -25 -3 -45 4 -27 10 -38 22 -38 9 0 12 3 6 8 -9 6 -12 50 -5 77 1 6 2 13 1 18 0 4 4 7 9 7 6 0 9 6 8 13 -2 6 3 11 10 10 6 -2 12 2 12 7 0 17 -38 11 -44 -7 -3 -10 -4 3 -2 29 4 53 -9 86 -19 47z"/> <path d="M1069 2038 c-8 -29 -6 -39 9 -32 9 3 25 6 35 6 9 0 17 6 17 14 0 9 -11 14 -30 14 -16 0 -30 -1 -31 -2z"/> <path d="M718 2022 c-10 -2 -18 -7 -18 -12 0 -5 -3 -15 -6 -24 -10 -25 14 -18 32 9 19 28 17 33 -8 27z"/> <path d="M1695 1994 c-26 -34 -31 -60 -5 -29 7 8 19 15 26 15 8 0 14 10 14 25 0 14 -2 25 -4 25 -2 0 -16 -16 -31 -36z"/> <path d="M1565 1995 c-5 -11 -16 -25 -24 -32 -22 -17 1 -16 23 0 11 8 16 21 14 33 -5 19 -5 19 -13 -1z"/> <path d="M651 1971 c-16 -22 -20 -35 -13 -40 8 -5 5 -13 -9 -25 -16 -13 -18 -21 -10 -29 16 -16 14 -47 -3 -47 -8 0 -16 7 -18 17 -3 15 -4 15 -16 0 -12 -15 -9 -17 27 -23 25 -4 41 -12 41 -20 0 -8 -4 -14 -9 -14 -5 0 -8 -6 -8 -12 1 -7 -2 -33 -6 -58 -6 -36 -3 -59 18 -114 14 -38 25 -73 25 -77 0 -14 -17 -10 -35 7 -9 9 -19 13 -23 9 -4 -3 1 -12 11 -19 9 -7 17 -18 17 -24 0 -6 9 -16 20 -22 11 -6 20 -17 20 -25 0 -8 9 -19 19 -24 16 -9 18 -8 14 9 -6 22 7 26 25 8 17 -17 15 -48 -3 -68 -14 -15 -14 -18 1 -30 12 -11 20 -11 35 -2 16 10 19 9 19 -3 0 -8 4 -15 9 -15 21 0 -3 76 -34 110 -43 47 -81 116 -90 164 -3 21 -13 49 -21 62 -14 20 -14 26 -1 51 23 44 30 98 17 123 -9 17 -9 32 0 64 6 24 10 56 8 72 l-3 29 -24 -34z"/> <path d="M440 1965 c10 -12 10 -18 0 -30 -11 -13 -8 -15 18 -15 48 0 51 24 5 49 -30 15 -38 14 -23 -4z"/> <path d="M827 1944 c-3 -4 -24 -6 -46 -6 -24 1 -41 -4 -44 -13 -8 -20 3 -26 25 -14 11 6 35 8 53 5 19 -4 36 -2 39 3 7 10 -18 34 -27 25z"/> <path d="M1496 1934 c-3 -9 -6 -25 -6 -35 0 -11 -4 -17 -10 -14 -5 3 -10 2 -10 -4 0 -37 46 -3 48 36 1 27 -14 39 -22 17z"/> <path d="M1700 1942 c0 -4 10 -12 23 -17 16 -8 21 -17 19 -38 -2 -21 1 -27 18 -27 30 0 25 27 -12 61 -32 29 -48 36 -48 21z"/> <path d="M1150 1930 c0 -11 34 -21 65 -19 11 1 28 -2 38 -6 9 -4 17 -3 17 2 0 11 -66 33 -99 33 -11 0 -21 -4 -21 -10z"/> <path d="M1550 1921 c0 -10 24 -21 43 -21 7 0 3 7 -7 15 -22 17 -36 19 -36 6z"/> <path d="M545 1910 c-3 -5 -1 -18 5 -27 10 -16 11 -16 7 4 -3 12 0 24 7 27 8 3 8 5 -1 5 -6 1 -15 -3 -18 -9z"/> <path d="M415 1890 c-10 -11 -15 -28 -12 -40 3 -13 -1 -24 -14 -30 -23 -13 -25 -36 -3 -44 10 -4 13 -13 9 -26 -4 -14 -2 -20 9 -20 8 0 18 5 21 10 3 6 1 10 -4 10 -6 0 -11 9 -11 20 0 11 4 20 10 20 5 0 7 6 4 14 -3 8 0 17 6 21 9 6 9 10 -1 16 -11 8 -9 13 9 28 26 22 27 27 8 34 -8 3 -22 -3 -31 -13z"/> <path d="M480 1905 c0 -18 19 -40 26 -32 4 4 0 15 -9 24 -9 10 -17 13 -17 8z"/> <path d="M1700 1885 c-17 -21 -9 -27 13 -10 10 7 14 16 9 19 -5 3 -15 -1 -22 -9z"/> <path d="M513 1854 c-3 -8 -1 -20 6 -27 8 -8 11 -4 11 16 0 30 -7 35 -17 11z"/> <path d="M1552 1858 c5 -13 38 -20 38 -8 0 4 -7 11 -16 14 -22 9 -26 8 -22 -6z"/> <path d="M1664 1812 c2 -9 7 -17 12 -17 5 0 15 -4 21 -8 22 -14 52 -16 59 -5 5 7 0 9 -14 6 -12 -4 -26 0 -33 9 -7 8 -20 18 -30 23 -13 8 -17 6 -15 -8z"/> <path d="M1415 1768 c-4 -22 -4 -42 -1 -45 11 -11 36 7 36 27 0 11 5 20 10 20 6 0 6 7 -1 18 -19 30 -37 22 -44 -20z"/> <path d="M1556 1794 c-11 -7 -16 -17 -13 -21 4 -4 15 1 24 10 22 21 14 30 -11 11z"/> <path d="M450 1783 c0 -5 7 -17 15 -27 15 -20 15 -20 29 0 8 10 14 19 13 20 -11 7 -57 12 -57 7z"/> <path d="M1594 1765 c-19 -29 -15 -38 31 -60 27 -12 34 -20 26 -29 -8 -10 -4 -16 14 -24 15 -7 25 -8 25 -2 0 6 -5 10 -11 10 -5 0 -8 3 -6 8 3 4 -3 23 -14 42 -11 22 -18 28 -19 18 0 -20 -11 -23 -27 -7 -7 7 -8 21 -3 40 10 35 6 37 -16 4z"/> <path d="M1777 1763 c-4 -3 -7 -15 -7 -26 0 -11 -5 -17 -12 -14 -32 13 -53 20 -48 16 3 -2 20 -17 39 -34 26 -23 32 -25 27 -11 -4 11 -1 25 8 35 14 16 7 49 -7 34z"/> <path d="M1136 1735 c4 -8 9 -15 13 -15 4 0 22 -23 40 -50 25 -38 31 -57 27 -76 -5 -17 -3 -23 4 -19 5 3 10 23 10 44 0 30 -8 48 -41 85 -41 46 -64 60 -53 31z"/> <path d="M832 1728 c-7 -7 -12 -15 -12 -20 0 -12 28 2 34 18 7 17 -6 18 -22 2z"/> <path d="M897 1728 c-21 -11 -13 -28 14 -28 10 0 18 -6 17 -12 -2 -8 10 -14 30 -16 44 -4 42 17 -6 45 -28 15 -42 19 -55 11z"/> <path d="M1022 1733 c-9 -3 -5 -10 13 -19 14 -7 32 -11 41 -7 12 5 12 7 -3 19 -19 14 -30 16 -51 7z"/> <path d="M496 1703 c-4 -11 -10 -13 -17 -6 -13 13 -71 4 -66 -11 2 -6 12 -11 23 -11 14 0 19 -7 17 -28 -2 -34 14 -36 23 -3 3 14 13 27 22 31 9 3 13 3 9 -1 -3 -4 3 -25 16 -47 16 -29 19 -41 10 -44 -18 -7 -16 -20 5 -27 9 -3 25 -11 34 -18 27 -19 36 1 10 22 -13 11 -22 25 -21 32 3 21 -12 48 -27 48 -9 0 -14 12 -14 34 0 38 -14 55 -24 29z"/> <path d="M1418 1691 c-11 -11 -14 -22 -9 -30 7 -11 11 -9 21 8 15 30 9 42 -12 22z"/> <path d="M1495 1670 c4 -6 1 -17 -5 -25 -8 -10 -9 -15 -2 -15 10 0 32 31 32 44 0 3 -7 6 -16 6 -8 0 -12 -5 -9 -10z"/> <path d="M1557 1622 c19 -34 37 -43 31 -16 -2 9 -13 23 -26 32 l-23 15 18 -31z"/> <path d="M1790 1633 c0 -8 -7 -10 -17 -6 -17 6 -17 6 -1 -10 29 -29 49 -20 28 13 -6 9 -10 11 -10 3z"/> <path d="M926 1621 c-74 -4 -111 -10 -114 -18 -3 -12 38 -20 63 -12 10 3 42 5 185 13 36 2 73 -1 83 -6 10 -5 26 -7 35 -3 54 21 -85 35 -252 26z"/> <path d="M1393 1544 c-2 -80 -4 -88 -34 -122 -46 -52 -137 -125 -190 -153 -100 -52 -189 -104 -189 -111 0 -9 91 29 110 47 8 7 44 28 80 46 59 29 151 93 205 144 12 11 27 41 35 68 7 26 18 47 24 47 7 0 7 3 -1 8 -23 14 -2 52 41 74 40 21 40 21 16 30 -16 6 -26 5 -28 -1 -5 -14 -52 -14 -52 -1 0 6 -3 10 -7 10 -5 0 -9 -39 -10 -86z"/> <path d="M1730 1584 c0 -11 -6 -13 -21 -9 -15 5 -20 3 -17 -6 5 -15 38 -22 38 -8 0 6 5 7 12 3 6 -4 8 -3 4 4 -3 5 -1 12 6 14 8 3 6 7 -5 11 -11 4 -17 1 -17 -9z"/> <path d="M1014 1557 c-8 -4 -19 -5 -24 -2 -6 3 -10 1 -10 -5 0 -15 129 -4 145 12 9 9 -94 4 -111 -5z"/> <path d="M820 1535 c0 -16 9 -35 21 -46 34 -30 42 -11 12 29 -15 20 -28 39 -30 41 -2 2 -3 -8 -3 -24z"/> <path d="M1329 1518 c-1 -7 -2 -18 -3 -24 0 -6 -23 -33 -51 -59 -54 -51 -124 -88 -216 -111 -51 -13 -65 -13 -115 0 -31 8 -67 25 -80 37 -13 12 -26 20 -29 17 -11 -11 40 -60 88 -84 48 -25 54 -26 104 -14 87 19 203 83 259 142 53 55 72 92 54 103 -5 3 -11 0 -11 -7z"/> <path d="M1678 1480 c-3 -19 -1 -29 6 -27 15 5 20 37 8 49 -6 6 -11 -1 -14 -22z"/> <path d="M1620 1481 c0 -5 6 -13 13 -19 10 -8 16 -6 25 9 11 17 9 19 -13 19 -14 0 -25 -4 -25 -9z"/> <path d="M596 1465 c-4 -10 1 -15 16 -15 17 0 18 2 8 15 -7 8 -14 15 -15 15 -2 0 -5 -7 -9 -15z"/> <path d="M1573 1451 c-2 -10 -16 -24 -29 -30 -30 -13 -31 -41 -3 -97 13 -28 28 -44 42 -46 14 -2 21 -9 19 -20 -2 -12 2 -16 12 -12 9 3 29 -4 45 -15 16 -12 32 -21 36 -21 4 0 21 -10 38 -22 17 -12 37 -23 45 -24 18 -3 109 -73 160 -123 49 -49 65 -54 27 -8 -33 38 -85 83 -140 118 -22 14 -86 56 -142 93 -56 36 -106 66 -112 66 -5 0 -16 14 -25 31 -12 24 -13 34 -3 50 13 22 33 25 40 7 3 -7 6 6 6 30 1 44 -7 56 -16 23z"/> <path d="M1362 1310 c-6 -11 -12 -30 -12 -42 1 -20 4 -18 20 12 11 19 19 38 20 43 0 14 -15 7 -28 -13z"/> <path d="M806 1298 c-2 -7 -6 -22 -9 -33 -3 -11 -8 -27 -12 -37 -4 -11 -1 -16 11 -15 18 2 42 -48 43 -90 1 -21 20 -31 33 -18 3 3 -5 41 -18 83 -13 42 -24 85 -24 94 0 21 -19 34 -24 16z"/> <path d="M1430 1293 c-22 -26 -72 -124 -66 -130 9 -9 22 6 44 49 22 44 44 98 39 98 -1 0 -9 -8 -17 -17z"/> <path d="M1240 1270 c-14 -11 -22 -20 -18 -20 14 0 58 23 58 32 0 13 -13 9 -40 -12z"/> <path d="M1296 1259 c-15 -12 -41 -46 -58 -76 -17 -30 -37 -57 -44 -60 -7 -3 -16 -14 -20 -25 -3 -11 -32 -32 -67 -50 l-62 -30 50 7 c55 8 65 12 65 26 0 6 15 24 33 42 19 18 54 61 78 97 71 103 72 106 25 69z"/> <path d="M1475 1222 c-49 -45 -107 -88 -154 -114 -28 -16 -53 -41 -68 -68 -13 -23 -47 -72 -76 -109 -99 -126 -162 -235 -195 -336 -11 -33 -27 -76 -36 -95 l-17 -35 6 55 c4 30 9 63 12 74 3 12 1 16 -6 12 -6 -4 -11 -16 -11 -27 0 -11 -11 -64 -25 -118 -34 -134 -59 -461 -35 -461 6 0 11 12 11 28 l1 27 9 -30 c5 -19 7 12 5 85 -2 63 1 140 6 170 6 30 11 62 12 70 2 8 5 22 8 30 3 8 11 34 17 57 21 75 144 305 251 465 58 87 109 158 113 158 9 0 52 -48 78 -88 9 -13 35 -35 57 -47 23 -13 57 -40 78 -60 55 -56 195 -175 205 -175 19 0 -4 27 -44 52 -23 15 -78 61 -122 102 -44 42 -101 90 -127 108 -26 18 -48 38 -48 44 0 5 -13 23 -30 39 -16 16 -30 31 -30 35 0 3 37 33 83 67 86 64 136 113 114 113 -6 0 -25 -13 -42 -28z m-588 -1104 c-2 -13 -4 -5 -4 17 -1 22 1 32 4 23 2 -10 2 -28 0 -40z"/> <path d="M880 1224 c0 -13 35 -64 47 -68 21 -8 14 17 -12 47 -23 26 -35 33 -35 21z"/> <path d="M1089 1192 c-88 -45 -132 -73 -125 -80 3 -2 16 3 30 11 38 25 96 58 146 84 25 12 40 23 34 23 -6 0 -44 -17 -85 -38z"/> <path d="M1573 1198 c-10 -18 -25 -48 -32 -65 -7 -18 -18 -33 -24 -33 -6 0 -7 -3 -4 -7 4 -3 2 -12 -5 -20 -8 -11 -7 -12 6 -7 9 3 16 12 16 20 0 8 4 14 8 14 9 0 45 69 57 108 9 32 0 27 -22 -10z"/> <path d="M1195 1211 c-10 -9 -50 -32 -128 -75 -22 -11 -43 -29 -49 -40 -10 -18 -9 -18 13 -2 13 9 30 16 37 16 19 0 152 89 152 101 0 12 -13 12 -25 0z"/> <path d="M745 1167 c-33 -25 -172 -105 -280 -161 -101 -52 -171 -118 -196 -186 -12 -30 -28 -73 -37 -95 -12 -28 -17 -74 -18 -155 -1 -93 -5 -123 -22 -160 -33 -71 -62 -198 -62 -268 0 -64 -12 -100 -36 -115 -19 -11 -18 -27 1 -27 8 0 15 5 15 11 0 5 4 8 9 5 13 -8 23 39 26 130 3 58 11 99 28 140 13 33 27 71 31 87 3 15 13 27 22 27 12 0 14 8 9 47 l-7 48 26 -34 c14 -19 27 -39 29 -45 2 -6 7 -9 10 -6 3 3 0 17 -8 30 -32 56 -38 80 -42 175 -4 68 -2 97 5 90 6 -5 12 -21 15 -35 2 -14 5 -3 6 24 2 73 37 159 85 207 40 40 132 94 171 101 11 1 22 5 25 8 3 3 12 10 21 15 69 44 159 107 164 115 3 5 15 15 25 20 18 10 19 8 10 -15 -12 -31 3 -33 17 -2 10 22 7 47 -5 47 -4 0 -20 -11 -37 -23z"/> <path d="M1440 1130 c-46 -40 -43 -56 4 -19 22 17 53 59 44 59 -2 0 -23 -18 -48 -40z"/> <path d="M744 1082 c-6 -4 -19 -23 -28 -42 l-17 -35 21 25 c12 14 31 33 43 42 16 13 18 18 7 18 -8 0 -20 -4 -26 -8z"/> <path d="M922 1071 c-10 -6 -8 -10 8 -14 18 -4 20 -10 15 -29 -15 -45 -51 -49 -48 -4 1 14 -2 24 -8 21 -14 -9 -11 -63 4 -72 7 -4 21 -19 31 -33 l18 -25 -5 31 c-5 24 -1 36 13 49 41 37 16 104 -28 76z"/> <path d="M811 1010 c0 -8 4 -24 9 -35 5 -13 9 -14 9 -5 0 8 -4 24 -9 35 -5 13 -9 14 -9 5z"/> <path d="M990 997 c0 -13 -9 -50 -20 -83 -12 -32 -29 -106 -40 -164 -10 -58 -22 -121 -26 -140 -4 -19 -3 -32 1 -28 4 4 16 47 26 95 11 48 34 145 52 216 25 94 30 127 20 127 -7 0 -13 -11 -13 -23z"/> <path d="M1024 965 c-4 -14 -4 -29 0 -32 3 -4 6 3 6 15 0 16 6 22 23 22 18 0 19 2 7 10 -23 15 -29 12 -36 -15z"/> <path d="M2016 955 c9 -14 26 -31 37 -36 16 -9 15 -4 -8 25 -31 41 -54 49 -29 11z"/> <path d="M1090 930 c-39 -32 -36 -51 3 -25 23 14 42 43 35 51 -2 1 -19 -10 -38 -26z"/> <path d="M822 835 c0 -74 3 -110 8 -95 11 33 11 125 1 175 -7 30 -9 9 -9 -80z"/> <path d="M1254 927 c-24 -26 -44 -57 -80 -124 l-26 -48 26 30 c14 17 25 33 26 37 0 10 62 102 74 110 6 4 8 9 5 12 -3 3 -15 -4 -25 -17z"/> <path d="M1330 881 c-77 -80 -190 -252 -190 -290 0 -29 12 -26 30 9 17 33 87 128 176 238 53 65 70 103 45 102 -3 -1 -31 -27 -61 -59z"/> <path d="M1003 895 c-6 -14 -8 -25 -4 -25 4 0 13 11 19 25 6 14 8 25 4 25 -4 0 -12 -11 -19 -25z"/> <path d="M880 843 c-1 -64 -6 -112 -29 -263 -6 -36 -15 -116 -21 -177 -6 -62 -19 -150 -30 -195 -10 -46 -21 -105 -24 -133 l-5 -50 14 55 c8 30 20 78 28 106 8 28 18 86 22 130 3 43 15 124 25 179 31 163 43 264 36 311 -5 36 -3 44 10 44 11 0 14 5 10 16 -3 9 -6 22 -6 30 0 8 -7 14 -15 14 -12 0 -15 -14 -15 -67z"/> <path d="M1407 798 c-26 -44 -47 -87 -47 -94 0 -8 -4 -14 -10 -14 -5 0 -10 -6 -10 -13 0 -8 -15 -34 -34 -58 -37 -48 -76 -114 -76 -129 0 -25 20 -6 45 42 38 73 74 128 83 128 4 0 16 17 27 37 11 20 25 41 30 47 38 41 66 118 47 130 -5 3 -29 -32 -55 -76z"/> <path d="M713 620 c1 -129 -2 -245 -6 -257 -9 -26 -27 -31 -27 -8 0 8 -9 15 -20 15 -11 0 -48 14 -81 31 -34 17 -63 28 -65 26 -6 -6 128 -72 140 -69 4 2 14 -5 22 -15 13 -17 15 -17 34 7 28 37 34 94 26 287 -11 267 -25 256 -23 -17z"/> <path d="M1903 823 c-49 -45 -116 -133 -148 -196 -24 -47 -27 -59 -16 -67 19 -11 38 -3 44 21 4 17 3 18 -9 8 -10 -8 -14 -9 -14 0 0 28 30 79 69 116 22 22 41 46 41 52 0 7 16 31 36 53 42 47 41 52 -3 13z"/> <path d="M987 834 c-4 -4 -7 -14 -7 -23 0 -11 3 -12 11 -4 6 6 10 16 7 23 -2 6 -7 8 -11 4z"/> <path d="M977 773 c-24 -91 -29 -114 -25 -118 3 -3 13 24 23 60 9 36 15 68 12 71 -3 3 -7 -3 -10 -13z"/> <path d="M1526 744 c-9 -23 -7 -46 3 -40 12 8 21 45 11 51 -4 3 -11 -2 -14 -11z"/> <path d="M783 615 c0 -122 -9 -194 -62 -490 -9 -46 -7 -65 3 -54 3 2 7 17 10 33 3 16 10 52 16 80 51 250 61 372 41 511 -5 37 -7 15 -8 -80z"/> <path d="M1894 712 c-31 -31 -123 -192 -98 -171 8 7 35 42 59 78 25 36 52 76 61 89 25 34 10 37 -22 4z"/> <path d="M1965 654 c-19 -42 -35 -79 -35 -81 0 -2 -16 -38 -35 -80 -20 -41 -34 -77 -32 -79 15 -15 157 249 157 294 0 41 -19 22 -55 -54z"/> <path d="M1661 645 c-23 -49 -46 -143 -37 -152 3 -3 8 8 12 23 4 16 20 58 36 93 18 39 25 68 20 73 -6 6 -18 -9 -31 -37z"/> <path d="M1927 673 c-8 -10 -38 -56 -67 -103 -28 -47 -61 -95 -73 -107 -11 -13 -17 -26 -14 -30 4 -3 7 -1 7 5 0 6 9 16 20 22 18 10 19 8 10 -15 -22 -57 -46 -92 -94 -138 l-51 -49 48 32 c57 38 113 111 122 160 4 19 31 81 61 138 30 56 53 102 51 102 -2 0 -11 -8 -20 -17z"/> <path d="M2089 643 c-1 -16 -1 -34 1 -42 1 -7 -7 -23 -18 -35 -31 -35 -104 -148 -99 -153 11 -10 45 23 82 79 31 49 40 72 43 119 2 33 2 59 -2 59 -3 0 -7 -12 -7 -27z"/> <path d="M273 575 c0 -22 2 -30 4 -17 2 12 2 30 0 40 -3 9 -5 -1 -4 -23z"/> <path d="M359 590 c13 -11 28 -20 35 -20 6 1 0 10 -13 20 -13 11 -28 20 -35 20 -6 -1 0 -10 13 -20z"/> <path d="M1166 545 c-20 -46 -20 -65 -2 -65 9 0 16 17 21 46 8 59 0 66 -19 19z"/> <path d="M460 536 c0 -11 203 -106 227 -106 17 0 -16 20 -62 38 -27 11 -76 32 -107 46 -32 14 -58 24 -58 22z"/> <path d="M1550 528 c-6 -76 -7 -149 -1 -139 9 14 15 141 7 141 -4 0 -6 -1 -6 -2z"/> <path d="M1725 517 c-42 -48 -76 -113 -90 -172 -10 -39 -28 -91 -41 -117 -28 -56 -31 -77 -9 -58 8 7 15 18 15 25 0 7 14 25 31 39 22 19 26 26 14 26 -11 0 -15 5 -11 15 3 9 13 44 21 78 9 35 33 87 55 120 22 31 36 57 32 57 -4 -1 -12 -6 -17 -13z"/> <path d="M1488 473 c23 -5 31 -23 10 -23 -9 0 -8 -4 2 -10 23 -15 30 -12 30 15 0 22 -4 25 -32 24 -24 -1 -27 -3 -10 -6z"/> <path d="M1335 445 c-92 -33 -338 -53 -310 -26 6 5 19 11 30 14 15 4 13 5 -7 6 -42 2 -43 2 -43 -6 0 -5 -3 -13 -7 -18 -3 -6 -14 -38 -22 -73 -9 -34 -26 -77 -36 -95 -26 -42 -26 -44 12 -39 31 5 32 5 9 14 -21 7 -22 10 -9 21 16 13 51 105 43 116 -2 4 0 13 5 21 7 11 26 14 77 12 69 -4 265 29 288 48 6 5 29 14 51 19 28 6 32 9 14 10 -14 0 -56 -11 -95 -24z"/> <path d="M1080 439 c0 -5 11 -9 25 -9 14 0 25 2 25 4 0 2 -11 6 -25 8 -14 3 -25 1 -25 -3z"/> <path d="M615 414 c21 -15 49 -19 41 -5 -3 5 -18 11 -33 14 -26 5 -26 4 -8 -9z"/> <path d="M2015 377 c-22 -12 -44 -32 -50 -45 -5 -12 -13 -22 -17 -22 -5 0 -8 -5 -8 -10 0 -15 129 72 129 88 1 17 -8 15 -54 -11z"/> <path d="M2092 344 c-3 -30 -44 -89 -115 -163 -34 -35 -54 -61 -44 -57 10 3 22 6 26 6 11 0 59 47 104 102 34 41 38 52 34 90 -2 24 -4 34 -5 22z"/> <path d="M1005 320 c3 -5 1 -10 -4 -10 -6 0 -11 -5 -11 -12 0 -7 7 -5 18 5 9 8 37 17 62 20 42 3 41 4 -13 5 -37 1 -56 -2 -52 -8z"/> <path d="M1991 275 c-72 -61 -168 -114 -254 -140 -84 -26 -63 -29 39 -5 96 22 140 46 217 119 40 37 76 82 65 81 -2 -1 -32 -25 -67 -55z"/> <path d="M627 313 c-4 -3 -7 -16 -6 -27 0 -19 1 -19 10 3 10 24 8 36 -4 24z"/> <path d="M1172 297 c-6 -7 -15 -46 -20 -87 -6 -41 -13 -83 -18 -94 -6 -16 -4 -17 14 -7 16 9 22 24 27 78 3 38 8 80 10 96 5 30 2 33 -13 14z"/> <path d="M1220 293 c0 -5 5 -15 10 -23 8 -12 10 -11 10 8 0 12 -4 22 -10 22 -5 0 -10 -3 -10 -7z"/> <path d="M1048 279 c-23 -13 -23 -24 0 -26 10 -1 24 7 30 18 14 22 0 26 -30 8z"/> <path d="M602 248 c6 -16 58 -23 58 -8 0 7 -8 9 -20 5 -11 -4 -20 -2 -20 4 0 6 -5 11 -11 11 -6 0 -9 -6 -7 -12z"/> <path d="M1015 183 c8 -15 15 -42 15 -60 0 -40 45 -98 55 -71 4 9 1 27 -7 40 -7 13 -17 43 -23 68 -8 35 -15 46 -32 48 -22 3 -22 2 -8 -25z"/> <path d="M2070 140 c-11 -11 -24 -20 -29 -20 -5 0 -11 -4 -13 -8 -1 -4 -24 -23 -50 -42 -27 -18 -48 -38 -48 -43 0 -8 89 38 100 53 3 3 12 9 20 12 15 6 57 68 46 68 -3 0 -15 -9 -26 -20z"/> <path d="M1557 139 c-11 -36 -26 -133 -22 -137 6 -6 53 49 60 70 3 9 -3 31 -14 49 -13 22 -22 28 -24 18z"/> <path d="M806 76 c-4 -27 -10 -55 -13 -62 -3 -8 0 -14 5 -14 13 0 25 56 20 96 -3 24 -5 20 -12 -20z"/> <path d="M1879 80 c-19 -16 -29 -29 -24 -29 14 0 70 47 64 53 -3 3 -21 -8 -40 -24z"/> <path d="M1756 54 c-21 -24 -36 -44 -32 -44 12 0 84 62 90 76 11 28 -20 11 -58 -32z"/> <path d="M430 73 c0 -20 22 -73 30 -73 5 0 4 15 -2 33 -12 34 -28 58 -28 40z"/> <path d="M940 26 c0 -14 5 -26 10 -26 6 0 10 9 10 19 0 11 -4 23 -10 26 -6 4 -10 -5 -10 -19z"/> <path d="M346 14 c-17 -12 -17 -14 -4 -14 9 0 20 5 23 11 11 17 2 18 -19 3z"/> </g> </svg> 